#!OML:ASF E:/inclinewalkrobotboard/Project1/Captureday1/Session1/subject1.ASF
:FULLY-SPECIFIED
:DEGREES
63
root 0 0 0 10.801615626510443 32.810245653248415 6.707808178476219
lowerback -6.6484497055391305 0.8494466039167368 -2.728357160125144
upperback -5.247865901232284 1.257436337099897 4.484937261304201
thorax -2.0452673636907015 0.8080939472181977 6.504955950894978
lowerneck -8.155565460907725 -6.852822915517008 -3.285874951273938
upperneck 29.40646438436525 -7.749740250701764 -5.549671466257283
head 10.635169814014096 -4.286731369243807 -2.032300713439451
rclavicle 5.5887293203951315E-15 6.080941972170962E-15
rhumerus 149.91709288578016 18.277472210551892 -246.0186491583001
rradius 10.382570920759996
rwrist 74.17677179078967
rhand -17.75148996936074 11.739157651128906
rfingers 7.125019999999984
rthumb 8.526079406714413 -18.051210292311463
lclavicle -1.5733042743003498E-15 -6.173785240605897E-15
lhumerus 47.2677436485482 17.056810983771527 59.646601211433556
lradius 21.856217035485496
lwrist 14.850160027063215
lhand 11.94229062554845 35.15095057135322
lfingers 7.12502
lthumb 36.92571725708586 60.98950894377517
rfemur 15.92548224998999 -77.59938359998779 -53.91316123987943
rtibia 40.96361549597395
rfoot -102.01451331242095 52.92019241521794
rtoes 59.34512805004954
lfemur -39.311152683365705 -3.4625378610603406 -35.54435977843783
ltibia 56.93397437099807
lfoot -16.365306552153346 9.344998829637563
ltoes -13.825892965685602
64
root 0 0 0 12.615201402264017 31.123977345037662 6.773310282420935
lowerback -6.540942365815619 1.337438764117282 -3.202204695563231
upperback -5.806505685776796 1.920647666037178 3.524533140412797
thorax -2.8263667644505936 1.1970987402159023 5.774930129496973
lowerneck -8.932478395248143 -6.176828764107944 -2.5769103579627566
upperneck 29.638925353981517 -6.889979922195436 -5.981197115161142
head 10.909175902428027 -3.8662092769991885 -2.2160610744184286
rclavicle 4.780151958301401E-15 9.71169554934263E-15
rhumerus 168.46017465305727 18.561799526969395 -229.78070630624129
rradius 10.051738961541393
rwrist 97.29109884165283
rhand -19.08398742013962 11.34488752714136
rfingers 7.125020000000005
rthumb 7.235957482328335 -18.51281222077114
lclavicle -6.3879079496574234E-15 -5.067063963072724E-16
lhumerus 29.1691715341386 22.016871592727043 27.67641432328955
lradius 15.767696935917165
lwrist -17.33843864264392
lhand 7.888979636160421 38.70427625770526
lfingers 7.125019999999996
lthumb 33.142911691276396 65.82634146454116
rfemur 143.0374896481381 -203.12720885774257 -176.41098191097194
rtibia 41.4696236884267
rfoot -100.70958223034442 33.617283510912515
rtoes 65.33529964233536
lfemur -47.40341528638349 -1.2204343051611755 -36.27249659925424
ltibia 58.25826368632829
lfoot -21.281583553448417 13.086615314518436
ltoes -7.635326367544101
65
root 0 0 0 13.496624711898349 26.844421924623877 6.687599172666024
lowerback -5.754241421482137 1.3816312566161284 -3.734122692671696
upperback -6.040080764269181 1.9384113570246142 2.927908870093612
thorax -3.5803907314566503 1.2663136020241863 5.449246220495205
lowerneck -9.714807302077434 -5.514946738494645 -2.098913889409096
upperneck 29.050409558823894 -6.128240066998752 -5.637023498873355
head 10.853452188729628 -3.449046524581303 -2.111316699734317
rclavicle 4.737277904530975E-15 1.0348413689102158E-14
rhumerus 179.8674882291751 18.156454087703978 -221.38210827128185
rradius 9.592198821262567
rwrist 106.79916659796731
rhand -19.127892087614995 10.006850360065252
rfingers 7.125020000000011
rthumb 7.197256190359749 -19.823081953693507
lclavicle -6.531199672129069E-15 2.4417932378631012E-15
lhumerus 21.542619030088115 21.963783767291133 19.565043622481596
lradius 15.379207998671102
lwrist -25.409561190833422
lhand 6.416172745795002 39.00251301193231
lfingers 7.125020000000003
lthumb 31.75900614122525 66.45175127591222
rfemur 164.1694438613306 -216.34573914980592 -192.18328150599933
rtibia 38.312877960014355
rfoot -92.7536491193525 25.45299768039261
rtoes 63.32921773587728
lfemur -55.64471979413796 1.3286862050846313 -37.11107256278319
ltibia 59.209274346014496
lfoot -27.241422967088724 17.399478239953723
ltoes -0.9982129786098195
66
root 0 0 0 17.59445161083211 14.724104136388302 5.798383519004483
lowerback -6.115355020248803 1.497349616856504 -4.7425178578554785
upperback -7.177428292650563 1.988115766204082 1.908985020598871
thorax -4.695881756214687 1.3926208834140854 4.959357861622075
lowerneck -10.829860669205038 -4.088564155851745 -1.070122115323865
upperneck 28.567504447768815 -4.698080520573251 -4.309749297888058
head 10.924859649219893 -2.5768531340436795 -1.6831239436803747
rclavicle 5.140420663157755E-15 1.0783795726210715E-14
rhumerus 183.28214231640624 18.030976205433873 -218.0845873065282
rradius 9.32706051804324
rwrist 110.10454522095547
rhand -19.204359391620084 9.448116028164241
rfingers 7.125020000000012
rthumb 7.127976045851746 -20.40276355946608
lclavicle -4.6540439945652724E-15 5.062759636501758E-15
lhumerus 16.694458241684746 21.03291458872146 17.04814714939113
lradius 15.912806077060964
lwrist -28.066548900094183
lhand 5.205109905257554 38.61052561717168
lfingers 7.125020000000012
lthumb 30.608022226600546 66.23731220002105
rfemur 172.3426109729392 -217.62234351893773 -197.34303363041724
rtibia 35.36372801697999
rfoot -86.2020996483737 18.256514465417343
rtoes 62.168996756060565
lfemur -59.972395643770476 2.904773663689311 -37.52014122214217
ltibia 59.480698368886124
lfoot -30.829230609916223 19.919442207972594
ltoes 2.9179029196583457
67
root 0 0 0 25.21673862204564 -4.868145850523112 3.915401449853862
lowerback -7.557419108812148 1.7244966472942236 -6.295898119536472
upperback -9.293248441235193 2.129412592639159 0.379780184044779
thorax -6.29614868475983 1.610132904934928 4.226498031557339
lowerneck -12.0885458925643 -1.7353412856301997 0.6576595383271154
upperneck 28.081572641090425 -2.3832857249167243 -2.069198216278214
head 11.051493768071822 -1.1486035381933664 -0.9574907022028682
rclavicle 5.2805466835533506E-15 1.1539543679202573E-14
rhumerus 183.17591643551023 17.882538457660303 -216.45841698244212
rradius 9.13285275357055
rwrist 111.9023120562538
rhand -19.280577342748888 9.259170966108902
rfingers 7.125020000000011
rthumb 7.052002383747652 -20.628872304157056
lclavicle -3.1142971539380156E-15 8.05467613164806E-15
lhumerus 11.352331405624554 20.1154397571752 15.790046940476145
lradius 16.353874124393347
lwrist -29.97194652780709
lhand 4.150651671437726 38.16129359196842
lfingers 7.125020000000021
lthumb 29.600676536645093 65.93093153404143
rfemur 171.87220986772203 -213.00097561688142 -196.93944224392766
rtibia 33.60917239233104
rfoot -81.58499813201942 11.364066639468053
rtoes 62.68490406624022
lfemur -62.50872177442608 3.8869496141537807 -37.8082956385635
ltibia 59.56306506608209
lfoot -32.84770707621053 21.361659720177563
ltoes 5.201631265077519
